<svg class="animated" id="freepik_stories-upload" xmlns="http://www.w3.org/2000/svg" viewBox="0 0 500 500" version="1.1"
>
    <style>svg#freepik_stories-upload:not(.animated) .animable {opacity: 0;}svg#freepik_stories-upload.animated
        #freepik--Cloud--inject-5 {animation: 1.5s Infinite linear floating;animation-delay: 0s;} @keyframes floating {
        0% { opacity: 1; transform: translateY(0px); } 50% { transform: translateY(-10px); } 100% { opacity: 1;
        transform: translateY(0px); } }
    </style>
    <g id="freepik--background-complete--inject-5" class="animable" style="transform-origin: 250px 227.66px;">
        <rect y="382.4" width="500" height="0.25" style="fill: rgb(235, 235, 235); transform-origin: 250px 382.525px;"
              id="elcsb10v2hfia" class="animable"></rect>
        <rect x="78.54" y="390.79" width="33.12" height="0.25"
              style="fill: rgb(235, 235, 235); transform-origin: 95.1px 390.915px;" id="elf9o9qaehn1i"
              class="animable"></rect>
        <rect x="133.33" y="398" width="30.17" height="0.25"
              style="fill: rgb(235, 235, 235); transform-origin: 148.415px 398.125px;" id="elvawjeqhra69"
              class="animable"></rect>
        <rect x="56.85" y="400.07" width="38.25" height="0.25"
              style="fill: rgb(235, 235, 235); transform-origin: 75.975px 400.195px;" id="el9ti0pr6yb7n"
              class="animable"></rect>
        <rect x="434" y="399.53" width="15.9" height="0.25"
              style="fill: rgb(235, 235, 235); transform-origin: 441.95px 399.655px;" id="elfv24x1b2u5f"
              class="animable"></rect>
        <rect x="391.47" y="399.53" width="39.32" height="0.25"
              style="fill: rgb(235, 235, 235); transform-origin: 411.13px 399.655px;" id="elo01d432ynkp"
              class="animable"></rect>
        <rect x="250" y="390.66" width="30.33" height="0.25"
              style="fill: rgb(235, 235, 235); transform-origin: 265.165px 390.785px;" id="elubmcgp18mhd"
              class="animable"></rect>
        <rect x="284.67" y="390.66" width="72.1" height="0.25"
              style="fill: rgb(235, 235, 235); transform-origin: 320.72px 390.785px;" id="elxdikehkwfc"
              class="animable"></rect>
        <path d="M237,337.8H43.91a5.71,5.71,0,0,1-5.7-5.71V60.66A5.71,5.71,0,0,1,43.91,55H237a5.71,5.71,0,0,1,5.71,5.71V332.09A5.71,5.71,0,0,1,237,337.8ZM43.91,55.2a5.46,5.46,0,0,0-5.45,5.46V332.09a5.46,5.46,0,0,0,5.45,5.46H237a5.47,5.47,0,0,0,5.46-5.46V60.66A5.47,5.47,0,0,0,237,55.2Z"
              style="fill: rgb(235, 235, 235); transform-origin: 140.46px 196.4px;" id="eluox8vg89mkr"
              class="animable"></path>
        <path d="M453.31,337.8H260.21a5.72,5.72,0,0,1-5.71-5.71V60.66A5.72,5.72,0,0,1,260.21,55h193.1A5.71,5.71,0,0,1,459,60.66V332.09A5.71,5.71,0,0,1,453.31,337.8ZM260.21,55.2a5.47,5.47,0,0,0-5.46,5.46V332.09a5.47,5.47,0,0,0,5.46,5.46h193.1a5.47,5.47,0,0,0,5.46-5.46V60.66a5.47,5.47,0,0,0-5.46-5.46Z"
              style="fill: rgb(235, 235, 235); transform-origin: 356.75px 196.4px;" id="el2s0mts9j3l4"
              class="animable"></path>
        <rect x="264.62" y="266.21" width="28.77" height="116.19"
              style="fill: rgb(230, 230, 230); transform-origin: 279.005px 324.305px;" id="eld1zxxcz3d8o"
              class="animable"></rect>
        <polygon points="281.43 382.4 293.39 382.4 293.39 362.36 268.89 362.36 281.43 382.4"
                 style="fill: rgb(245, 245, 245); transform-origin: 281.14px 372.38px;" id="el5r5sozxxc57"
                 class="animable"></polygon>
        <rect x="56.85" y="266.21" width="28.77" height="116.19"
              style="fill: rgb(230, 230, 230); transform-origin: 71.235px 324.305px;" id="elp7s3on4o9mc"
              class="animable"></rect>
        <rect x="75.18" y="266.21" width="218.2" height="109.29"
              style="fill: rgb(245, 245, 245); transform-origin: 184.28px 320.855px;" id="el2ykzwntub8o"
              class="animable"></rect>
        <path d="M284.61,299.76H84v-23.9H284.61ZM85,298.76H283.61v-21.9H85Z"
              style="fill: rgb(235, 235, 235); transform-origin: 184.305px 287.81px;" id="eljiiobr46bqb"
              class="animable"></path>
        <polygon points="87.14 382.4 75.18 382.4 75.18 362.36 99.68 362.36 87.14 382.4"
                 style="fill: rgb(245, 245, 245); transform-origin: 87.43px 372.38px;" id="eltfbriclvwd8"
                 class="animable"></polygon>
        <path d="M284.61,365.85H84v-57H284.61ZM85,364.85H283.61v-55H85Z"
              style="fill: rgb(235, 235, 235); transform-origin: 184.305px 337.35px;" id="elf52y76jx10i"
              class="animable"></path>
        <rect x="180.49" y="78.52" width="227.38" height="157.46"
              style="fill: rgb(230, 230, 230); transform-origin: 294.18px 157.25px;" id="el0y9kfmxscg8"
              class="animable"></rect>
        <rect x="184.67" y="78.52" width="227.38" height="157.46"
              style="fill: rgb(245, 245, 245); transform-origin: 298.36px 157.25px;" id="elc0mcm8xwyfa"
              class="animable"></rect>
        <g id="elnotssruysj">
            <rect x="227.58" y="51.07" width="141.56" height="212.37"
                  style="fill: rgb(255, 255, 255); transform-origin: 298.36px 157.255px; transform: rotate(90deg);"
                  class="animable"></rect>
        </g>
        <g id="elvrp701h0c5f">
            <rect x="332.18" y="155.67" width="141.56" height="3.16"
                  style="fill: rgb(230, 230, 230); transform-origin: 402.96px 157.25px; transform: rotate(90deg);"
                  class="animable"></rect>
        </g>
        <rect x="187.77" y="99.15" width="221.17" height="5.34"
              style="fill: rgb(245, 245, 245); transform-origin: 298.355px 101.82px;" id="elxscvj2jaq3m"
              class="animable"></rect>
        <g id="el7iwqtoju9tb">
            <g style="opacity: 0.5; transform-origin: 323.99px 160.705px;" class="animable">
                <rect x="399.35" y="73.26" width="8.98" height="174.89"
                      style="fill: rgb(240, 240, 240); transform-origin: 403.84px 160.705px;" id="el2n20433plnx"
                      class="animable"></rect>
                <rect x="387.94" y="73.26" width="8.98" height="174.89"
                      style="fill: rgb(240, 240, 240); transform-origin: 392.43px 160.705px;" id="ely0xb2q3fvxr"
                      class="animable"></rect>
                <rect x="376.53" y="73.26" width="8.98" height="174.89"
                      style="fill: rgb(240, 240, 240); transform-origin: 381.02px 160.705px;" id="elgr30uzgbp1j"
                      class="animable"></rect>
                <rect x="365.13" y="73.26" width="8.98" height="174.89"
                      style="fill: rgb(240, 240, 240); transform-origin: 369.62px 160.705px;" id="ellyfjm8igeb"
                      class="animable"></rect>
                <rect x="353.72" y="73.26" width="8.98" height="174.89"
                      style="fill: rgb(240, 240, 240); transform-origin: 358.21px 160.705px;" id="elreyz47s1y7"
                      class="animable"></rect>
                <rect x="342.31" y="73.26" width="8.98" height="174.89"
                      style="fill: rgb(240, 240, 240); transform-origin: 346.8px 160.705px;" id="elowpoqlvu98"
                      class="animable"></rect>
                <rect x="330.91" y="73.26" width="8.98" height="174.89"
                      style="fill: rgb(240, 240, 240); transform-origin: 335.4px 160.705px;" id="elqci9teztk1l"
                      class="animable"></rect>
                <rect x="319.5" y="73.26" width="8.98" height="174.89"
                      style="fill: rgb(240, 240, 240); transform-origin: 323.99px 160.705px;" id="elf6ai7fmtgg"
                      class="animable"></rect>
                <rect x="308.09" y="73.26" width="8.98" height="174.89"
                      style="fill: rgb(240, 240, 240); transform-origin: 312.58px 160.705px;" id="eleb95wjjtvzj"
                      class="animable"></rect>
                <rect x="296.68" y="73.26" width="8.98" height="174.89"
                      style="fill: rgb(240, 240, 240); transform-origin: 301.17px 160.705px;" id="el7mkzly2i2jk"
                      class="animable"></rect>
                <rect x="285.28" y="73.26" width="8.98" height="174.89"
                      style="fill: rgb(240, 240, 240); transform-origin: 289.77px 160.705px;" id="elckp4xhhcnmi"
                      class="animable"></rect>
                <rect x="273.87" y="73.26" width="8.98" height="174.89"
                      style="fill: rgb(240, 240, 240); transform-origin: 278.36px 160.705px;" id="elxp9ar6aonbe"
                      class="animable"></rect>
                <rect x="262.46" y="73.26" width="8.98" height="174.89"
                      style="fill: rgb(240, 240, 240); transform-origin: 266.95px 160.705px;" id="el25weew5q8k7"
                      class="animable"></rect>
                <rect x="251.05" y="73.26" width="8.98" height="174.89"
                      style="fill: rgb(240, 240, 240); transform-origin: 255.54px 160.705px;" id="elns9w3k4cjoa"
                      class="animable"></rect>
                <rect x="239.65" y="73.26" width="8.98" height="174.89"
                      style="fill: rgb(240, 240, 240); transform-origin: 244.14px 160.705px;" id="elf14tcm6x4j7"
                      class="animable"></rect>
            </g>
        </g>
        <rect x="62.35" y="97.33" width="65.9" height="119.84"
              style="fill: rgb(240, 240, 240); transform-origin: 95.3px 157.25px;" id="elrmnfik171o9"
              class="animable"></rect>
        <rect x="66.6" y="97.33" width="75.8" height="119.84"
              style="fill: rgb(245, 245, 245); transform-origin: 104.5px 157.25px;" id="eltuni5a160e"
              class="animable"></rect>
        <g id="el0r2y03tevgfg">
            <rect x="47.42" y="122.44" width="114.16" height="69.62"
                  style="fill: rgb(255, 255, 255); transform-origin: 104.5px 157.25px; transform: rotate(-90deg);"
                  class="animable"></rect>
        </g>
        <g id="el79qjrkz6ovp">
            <rect x="67.38" y="141" width="74.24" height="32.51" rx="2.76"
                  style="fill: rgb(245, 245, 245); transform-origin: 104.5px 157.255px; transform: rotate(-90deg);"
                  class="animable"></rect>
        </g>
        <path d="M383.91,197.29l13.48,33.22c-.39,96.09,3.95,101.63,4,118.16h-34C366.13,268.24,378.06,286.32,383.91,197.29Z"
              style="fill: rgb(235, 235, 235); transform-origin: 384.344px 272.98px;" id="el7tmpvaewpx2"
              class="animable"></path>
        <path d="M402.91,295.42c-27.39-75.41-90.45-52.06-87.62-24.57S418.66,338.79,402.91,295.42Z"
              style="fill: rgb(235, 235, 235); transform-origin: 359.891px 279.513px;" id="elxju6wy8ftc"
              class="animable"></path>
        <path d="M392.55,338.9c-14.94-48.59-54.68-40.66-54.68-18.33S401.15,366.85,392.55,338.9Z"
              style="fill: rgb(235, 235, 235); transform-origin: 365.612px 327.269px;" id="el7i43f19yxtu"
              class="animable"></path>
        <path d="M391.49,251.18c-23.46-65-81.89-56-77.18-28.61S405,288.54,391.49,251.18Z"
              style="fill: rgb(235, 235, 235); transform-origin: 353.485px 234.242px;" id="eltqkdhekrqp"
              class="animable"></path>
        <path d="M391.65,222.05c2.17-44.26-41.66-62.48-38.62-36S390.4,247.5,391.65,222.05Z"
              style="fill: rgb(235, 235, 235); transform-origin: 372.303px 202.319px;" id="elreduut0a1wm"
              class="animable"></path>
        <path d="M388.38,267.36c9.25-54.54,65.42-75.28,59.14-44.41S383.05,298.73,388.38,267.36Z"
              style="fill: rgb(235, 235, 235); transform-origin: 418.022px 243.299px;" id="elpskuv003s59"
              class="animable"></path>
        <path d="M383.65,236.53c-10.91-57.19,39.55-82.6,41-55S389.92,269.42,383.65,236.53Z"
              style="fill: rgb(235, 235, 235); transform-origin: 403.4px 208.22px;" id="elcbz7lo5a7bb"
              class="animable"></path>
        <path d="M379.27,301.13c22.29-55.11,70-41.44,65.21-16.36S366.45,332.83,379.27,301.13Z"
              style="fill: rgb(235, 235, 235); transform-origin: 411.291px 289.723px;" id="elmketrxp0uti"
              class="animable"></path>
        <path d="M390.27,339.61c-.5-35.55,31.78-44.74,32.16-24.14S390.56,360.06,390.27,339.61Z"
              style="fill: rgb(235, 235, 235); transform-origin: 406.349px 326.018px;" id="el88m4j3fzkhv"
              class="animable"></path>
        <path d="M380.41,382.65h0a37.13,37.13,0,0,1-36.35-29,75.73,75.73,0,0,0-3.79-13l-.27-.68h80.83l-.28.68a75.7,75.7,0,0,0-3.78,13A37.14,37.14,0,0,1,380.41,382.65Z"
              style="fill: rgb(224, 224, 224); transform-origin: 380.415px 361.31px;" id="eli6gsvgyx4cp"
              class="animable"></path>
    </g>
    <g id="freepik--Shadow--inject-5" class="animable" style="transform-origin: 250px 416.24px;">
        <ellipse id="freepik--path--inject-5" cx="250" cy="416.24" rx="193.89" ry="11.32"
                 style="fill: rgb(245, 245, 245); transform-origin: 250px 416.24px;" class="animable"></ellipse>
    </g>
    <g id="freepik--Cloud--inject-5" class="animable" style="transform-origin: 192.334px 246.94px;">
        <path d="M129.37,213.94l-.63-.77a66.77,66.77,0,0,1,8.2-5.72l.51.87A65.79,65.79,0,0,0,129.37,213.94Z"
              style="fill: rgb(64, 123, 255); transform-origin: 133.095px 210.695px;" id="elh3clmjvb0wt"
              class="animable"></path>
        <path d="M108.83,242.52l-.93-.35a68.71,68.71,0,0,1,15.67-24.35l.71.71A67.82,67.82,0,0,0,108.83,242.52Z"
              style="fill: rgb(64, 123, 255); transform-origin: 116.09px 230.17px;" id="ell8gfijfcvgp"
              class="animable"></path>
        <path d="M302.57,286.59a53.28,53.28,0,0,0-73.21-48.95,64.38,64.38,0,0,0-120.7,14.25,55.4,55.4,0,0,0,3.61,110.69H288.59a39.28,39.28,0,0,0,14-76Z"
              style="fill: rgb(64, 123, 255); transform-origin: 192.334px 282.038px;" id="elvcpnb4aza7"
              class="animable"></path>
        <path d="M262.91,268.69H121.81a4.35,4.35,0,0,1-4.33-4.34h0a4.34,4.34,0,0,1,4.33-4.33h141.1a4.34,4.34,0,0,1,4.33,4.33h0A4.35,4.35,0,0,1,262.91,268.69Z"
              style="fill: rgb(38, 50, 56); transform-origin: 192.36px 264.355px;" id="elfl8czzmj63k"
              class="animable"></path>
        <path d="M241.63,327.29H143.09a14.56,14.56,0,1,1,0-29.12h98.54a14.56,14.56,0,1,1,0,29.12Zm-98.54-28.12a13.56,13.56,0,1,0,0,27.12h98.54a13.56,13.56,0,1,0,0-27.12Z"
              style="fill: rgb(255, 255, 255); transform-origin: 192.36px 312.73px;" id="elv7ri4g36onm"
              class="animable"></path>
        <path d="M166.11,323.79h-23A11.1,11.1,0,0,1,132,312.73h0a11.1,11.1,0,0,1,11.06-11.07h23a11.1,11.1,0,0,1,11.06,11.07h0A11.1,11.1,0,0,1,166.11,323.79Z"
              style="fill: rgb(255, 255, 255); transform-origin: 154.56px 312.725px;" id="el8d77zed2i3m"
              class="animable"></path>
        <polygon points="266.94 184.63 248.23 264.35 136.61 264.35 167.83 131.3 245.12 149.43 266.94 184.63"
                 style="fill: rgb(64, 123, 255); transform-origin: 201.775px 197.825px;" id="el15f7zqj8tnji"
                 class="animable"></polygon>
        <g id="ellecsdts1fr">
            <polygon points="266.94 184.63 248.23 264.35 136.61 264.35 167.83 131.3 245.12 149.43 266.94 184.63"
                     style="fill: rgb(250, 250, 250); opacity: 0.8; transform-origin: 201.775px 197.825px;"
                     class="animable"></polygon>
        </g>
        <path d="M252.38,199.45l-84.78-19.9a2.26,2.26,0,0,1-1.69-2.72h0a2.27,2.27,0,0,1,2.72-1.7L253.42,195a2.28,2.28,0,0,1,1.69,2.73h0A2.29,2.29,0,0,1,252.38,199.45Z"
              style="fill: rgb(64, 123, 255); transform-origin: 210.509px 187.289px;" id="elqccbupgzi7"
              class="animable"></path>
        <path d="M249.14,213.25l-84.78-19.9a2.27,2.27,0,0,1-1.69-2.73h0a2.28,2.28,0,0,1,2.73-1.69l84.78,19.9a2.27,2.27,0,0,1,1.69,2.72h0A2.28,2.28,0,0,1,249.14,213.25Z"
              style="fill: rgb(64, 123, 255); transform-origin: 207.269px 201.09px;" id="elccztr45ay7o"
              class="animable"></path>
        <path d="M245.9,227l-84.78-19.89a2.28,2.28,0,0,1-1.69-2.73h0a2.29,2.29,0,0,1,2.73-1.69l84.78,19.89a2.27,2.27,0,0,1,1.69,2.73h0A2.27,2.27,0,0,1,245.9,227Z"
              style="fill: rgb(64, 123, 255); transform-origin: 204.031px 214.847px;" id="elltftlc27o8i"
              class="animable"></path>
        <path d="M242.67,240.84,157.88,221a2.29,2.29,0,0,1-1.69-2.73h0a2.28,2.28,0,0,1,2.73-1.69l84.78,19.89a2.29,2.29,0,0,1,1.7,2.73h0A2.27,2.27,0,0,1,242.67,240.84Z"
              style="fill: rgb(64, 123, 255); transform-origin: 200.795px 228.712px;" id="elo4evnxz5aj"
              class="animable"></path>
        <path d="M205.72,246.73l-51.07-12A2.27,2.27,0,0,1,153,232h0a2.26,2.26,0,0,1,2.72-1.69l51.08,12a2.27,2.27,0,0,1,1.69,2.73h0A2.27,2.27,0,0,1,205.72,246.73Z"
              style="fill: rgb(64, 123, 255); transform-origin: 180.744px 238.525px;" id="eloa24cwssbt"
              class="animable"></path>
        <polygon points="266.94 184.63 238.43 177.94 245.12 149.43 266.94 184.63"
                 style="fill: rgb(64, 123, 255); transform-origin: 252.685px 167.03px;" id="elq3vfsdor7ln"
                 class="animable"></polygon>
    </g>
    <g id="freepik--Character--inject-5" class="animable animator-active"
       style="transform-origin: 325.444px 239.555px;">
        <path d="M286.09,260.33l-23.7,155.91h4.68l3.13-20.63h60.38l-3.13,20.63h4.68l23.7-155.91Zm45.12,131.15H270.83l3.37-22.12h60.38Zm4-26.25H274.82l3.37-22.12h60.38Zm4-26.25H278.81l3.37-22.12h60.38Zm4-26.25H282.81l3.36-22.13h60.38ZM286.8,286.47l3.36-22.12h60.38l-3.36,22.12Z"
              style="fill: rgb(38, 50, 56); transform-origin: 309.11px 338.285px;" id="elkbrwczbiv4"
              class="animable"></path>
        <path d="M365.58,260.33H295.84l23.7,155.91h4.68l-3.14-20.63h60.38l3.14,20.63h4.68Zm-64.45,4h60.38l3.36,22.12H304.49Zm4,26.25H365.5l3.36,22.13H308.48Zm4,26.26h60.38L372.85,339H312.47Zm4,26.25h60.38l3.36,22.12H316.46Zm7.35,48.37-3.36-22.12h60.38l3.36,22.12Z"
              style="fill: rgb(38, 50, 56); transform-origin: 342.56px 338.285px;" id="elwdno8iybhr8"
              class="animable"></path>
        <g id="el7nucghkp4q8">
            <path d="M365.58,260.33H295.84l23.7,155.91h4.68l-3.14-20.63h60.38l3.14,20.63h4.68Zm-64.45,4h60.38l3.36,22.12H304.49Zm4,26.25H365.5l3.36,22.13H308.48Zm4,26.26h60.38L372.85,339H312.47Zm4,26.25h60.38l3.36,22.12H316.46Zm7.35,48.37-3.36-22.12h60.38l3.36,22.12Z"
                  style="fill: rgb(255, 255, 255); opacity: 0.4; transform-origin: 342.56px 338.285px;"
                  class="animable"></path>
        </g>
        <path d="M335.7,108.58c2,1.54,3.76,3.08,5.58,4.68s3.56,3.24,5.28,4.93a111,111,0,0,1,9.76,10.92l1.12,1.51.56.75a11.26,11.26,0,0,1,.85,1.39,13.38,13.38,0,0,1,1.38,5.18,26.88,26.88,0,0,1-.85,8.25,55.75,55.75,0,0,1-5.54,13.8l-5.11-2.08a97.08,97.08,0,0,0,2.17-13.11,21.87,21.87,0,0,0-.18-5.71,3.94,3.94,0,0,0-.59-1.51c-.05-.05-.07-.05-.1-.08l-.54-.61-1.08-1.23c-3-3.24-6.16-6.4-9.5-9.44s-6.8-6.1-10.16-8.94Z"
              style="fill: rgb(127, 62, 59); transform-origin: 344.508px 134.285px;" id="el32heunw5gln"
              class="animable"></path>
        <path d="M350.76,155.85l-5.75,4,7,4.24s3.61-3.45,2.06-6.65Z"
              style="fill: rgb(127, 62, 59); transform-origin: 349.733px 159.97px;" id="elf1xsto7jap"
              class="animable"></path>
        <polygon points="342.15 166.42 347.45 169.39 352.05 164.04 345.01 159.81 342.15 166.42"
                 style="fill: rgb(127, 62, 59); transform-origin: 347.1px 164.6px;" id="elnyzqtsbauk"
                 class="animable"></polygon>
        <path d="M296.55,87.68c.16.65-.05,1.26-.47,1.37s-.9-.33-1.07-1,.05-1.26.47-1.37S296.38,87,296.55,87.68Z"
              style="fill: rgb(38, 50, 56); transform-origin: 295.778px 87.8649px;" id="elx93h2cfeywl"
              class="animable"></path>
        <path d="M296.56,88.93a23.8,23.8,0,0,1-1.67,6.32,3.87,3.87,0,0,0,3.24-.21Z"
              style="fill: rgb(99, 15, 15); transform-origin: 296.51px 92.2197px;" id="elnkfgjsbyen"
              class="animable"></path>
        <path d="M297.92,83.51a.39.39,0,0,1-.24,0,3.14,3.14,0,0,0-2.83.19.39.39,0,0,1-.45-.63,3.88,3.88,0,0,1,3.57-.29.39.39,0,0,1-.05.74Z"
              style="fill: rgb(38, 50, 56); transform-origin: 296.244px 83.1116px;" id="elojws7soztp"
              class="animable"></path>
        <path d="M317.05,89.5c.93,6.1,2.24,15.45,7.6,17.81,0,0,.52,6.34-10.07,10.15-11.64,4.19-7.64-3.77-7.64-3.77,5.81-3.81,3.95-8.46,1.25-12.49Z"
              style="fill: rgb(127, 62, 59); transform-origin: 315.465px 104.089px;" id="eln2osdjo7ttl"
              class="animable"></path>
        <path d="M325.65,106c0-1.91-1.95-5.22-3.92-5-2.17.25-10.45,3.3-13.47,6.09s-.88,7.68-.88,7.68Z"
              style="fill: rgb(38, 50, 56); transform-origin: 316.147px 107.88px;" id="eluhqbqz4uce8"
              class="animable"></path>
        <path d="M389.5,337.2c-.52.54-1.11,1-1.57.93-.2,0-.46-.14-.59-.58a.8.8,0,0,1,.09-.67c.56-.95,3-1.44,3.07-1.46a.18.18,0,0,1,.18.07.19.19,0,0,1,0,.19A9.36,9.36,0,0,1,389.5,337.2Zm-1.64-.31a.75.75,0,0,0-.14.17.49.49,0,0,0-.05.39c.1.31.25.33.3.34.51.06,1.56-1,2.19-1.93A5.63,5.63,0,0,0,387.86,336.89Z"
              style="fill: rgb(64, 123, 255); transform-origin: 389.005px 336.777px;" id="elnptgm6z9afq"
              class="animable"></path>
        <path d="M390.66,335.71a.18.18,0,0,1-.07.05c-.83.26-3,.19-3.49-.49a.58.58,0,0,1,.06-.71.94.94,0,0,1,.68-.38c1.09-.13,2.74,1.22,2.81,1.28a.17.17,0,0,1,.06.16A.19.19,0,0,1,390.66,335.71Zm-3.17-1s0,0-.05.06c-.14.18-.08.26-.05.3.28.4,1.81.58,2.75.43a4.14,4.14,0,0,0-2.26-1A.55.55,0,0,0,387.49,334.71Z"
              style="fill: rgb(64, 123, 255); transform-origin: 388.859px 335.035px;" id="elvtf5t4940uq"
              class="animable"></path>
        <path d="M329,358.1c-.94,0-1.85-.13-2.16-.55a.67.67,0,0,1,0-.76.87.87,0,0,1,.55-.41c1.22-.33,3.79,1.13,3.9,1.2a.16.16,0,0,1,.08.17.17.17,0,0,1-.14.15A13.19,13.19,0,0,1,329,358.1Zm-1.16-1.42a1.18,1.18,0,0,0-.34,0,.51.51,0,0,0-.34.24c-.12.22-.08.32,0,.39.34.47,2.19.48,3.56.29A7.88,7.88,0,0,0,327.85,356.68Z"
              style="fill: rgb(64, 123, 255); transform-origin: 329.047px 357.216px;" id="elwkoc2hm2hfe"
              class="animable"></path>
        <path d="M331.23,357.9a.1.1,0,0,1-.07,0c-.89-.39-2.64-2-2.51-2.81,0-.2.17-.44.65-.49a1.3,1.3,0,0,1,1,.3,4.88,4.88,0,0,1,1.14,2.83.17.17,0,0,1-.07.16A.17.17,0,0,1,331.23,357.9Zm-1.79-3h-.11c-.31,0-.33.15-.34.19-.08.5,1.12,1.75,2,2.29a4,4,0,0,0-1-2.26A.92.92,0,0,0,329.44,354.92Z"
              style="fill: rgb(64, 123, 255); transform-origin: 330.042px 356.25px;" id="elhgzgwfgrlgi"
              class="animable"></path>
        <polygon points="339.31 357.73 331.96 357.73 331.23 340.71 338.58 340.71 339.31 357.73"
                 style="fill: rgb(127, 62, 59); transform-origin: 335.27px 349.22px;" id="elqk31ytb53a9"
                 class="animable"></polygon>
        <polygon points="398.18 332.81 391.38 335.28 382.74 320.04 389.54 317.57 398.18 332.81"
                 style="fill: rgb(127, 62, 59); transform-origin: 390.46px 326.425px;" id="elvhgt8tox48l"
                 class="animable"></polygon>
        <path d="M390.31,334.61l5.74-5.94a.65.65,0,0,1,.79-.1l5.7,3.5a1.08,1.08,0,0,1,.19,1.68c-2,2-3.13,2.93-5.65,5.54-1.56,1.6-6.18,7-8.32,9.26s-4.62.38-3.94-.72c3.05-4.93,4.89-9.62,5-12.05A1.77,1.77,0,0,1,390.31,334.61Z"
              style="fill: rgb(38, 50, 56); transform-origin: 393.876px 339.046px;" id="el7o06b786bg9"
              class="animable"></path>
        <path d="M332,356.88h8a.64.64,0,0,1,.63.5l1.45,6.53a1.06,1.06,0,0,1-1.06,1.3c-2.89,0-7.07-.21-10.71-.21-4.25,0-6.11.23-11.1.23-3,0-3.85-3.05-2.59-3.33,5.75-1.26,8.62-1.39,13.59-4.45A3.44,3.44,0,0,1,332,356.88Z"
              style="fill: rgb(38, 50, 56); transform-origin: 329.082px 361.055px;" id="elw13k4iuy91e"
              class="animable"></path>
        <path d="M312.05,123.17c-1.13,2.85-2.33,5.5-3.57,8.22s-2.56,5.36-3.92,8A122.12,122.12,0,0,1,295.11,155c-.93,1.26-1.93,2.51-3,3.75-.55.63-1.11,1.21-1.77,1.86a15.77,15.77,0,0,1-2.49,1.92,29.07,29.07,0,0,1-4.62,2.29c-1.5.61-3,1.11-4.47,1.55a91.8,91.8,0,0,1-17.75,3.3l-1.12-5.4c5.35-1.93,10.79-3.94,15.8-6.18,1.24-.58,2.46-1.17,3.6-1.78a20.25,20.25,0,0,0,3-1.91,5.79,5.79,0,0,0,.89-.83c.35-.41.77-.89,1.15-1.38.77-1,1.53-2.06,2.26-3.19,1.49-2.22,2.87-4.63,4.2-7.08s2.63-5,3.87-7.5c2.49-5.07,4.9-10.32,7.12-15.45Z"
              style="fill: rgb(127, 62, 59); transform-origin: 285.97px 144.32px;" id="el1q8zrfemddw"
              class="animable"></path>
        <path d="M328.82,104.19c10.54-.82,20,14.81,20,14.81l-7.57,12.3a54.61,54.61,0,0,1-15-8.93C319.08,116.14,321.62,104.76,328.82,104.19Z"
              style="fill: rgb(64, 123, 255); transform-origin: 335.4px 117.729px;" id="el4bz2zb7dx8q"
              class="animable"></path>
        <g id="elvpjnf52uhv">
            <path d="M328.16,117.36l11.09,14.93-.5.61s-3.82-3-8.24-7.34Z"
                  style="opacity: 0.3; transform-origin: 333.705px 125.13px;" class="animable"></path>
        </g>
        <path d="M299.59,115.84c-.59,5.15,8,27.93,10,54.95l39.11-3.85c-.28-5.18-3.14-27-8.32-51.63-1.43-6.8-6.7-12-13.51-10.67l-.19,0a143.37,143.37,0,0,0-16.18,4.15,71.74,71.74,0,0,0-8.76,3.87A4.07,4.07,0,0,0,299.59,115.84Z"
              style="fill: rgb(64, 123, 255); transform-origin: 324.131px 137.611px;" id="el0t08lfblflm"
              class="animable"></path>
        <g id="elbf70spsg68n">
            <path d="M303.55,134.76c.66,2.75,1.35,5.73,2,8.9,5.95-1.41,4.8-14.6,4.92-14.77Z"
                  style="opacity: 0.3; transform-origin: 307.019px 136.275px;" class="animable"></path>
        </g>
        <path d="M312.33,118.39c3,10.29-8.1,24-8.1,24l-11.18-7.2s-.08-9.43,3.49-16.79C301.07,109.08,310.19,111.05,312.33,118.39Z"
              style="fill: rgb(64, 123, 255); transform-origin: 302.947px 127.258px;" id="elo7irbkhnnms"
              class="animable"></path>
        <path d="M260,163.29l-4.49-.61.07,9.38s6.05.62,9.41-3.55l-.66-1.76A5.41,5.41,0,0,0,260,163.29Z"
              style="fill: rgb(127, 62, 59); transform-origin: 260.25px 167.386px;" id="elwe0of9qr52"
              class="animable"></path>
        <polygon points="247.84 164.85 250.71 172.49 255.62 172.06 255.55 162.68 247.84 164.85"
                 style="fill: rgb(127, 62, 59); transform-origin: 251.73px 167.585px;" id="el5b7dkrotny4"
                 class="animable"></polygon>
        <g id="elh72ov46lhyp">
            <polygon points="331.23 340.72 331.64 350.28 338.99 350.28 338.58 340.72 331.23 340.72"
                     style="opacity: 0.2; transform-origin: 335.11px 345.5px;" class="animable"></polygon>
        </g>
        <g id="el4q7li115l3t">
            <polygon points="389.54 317.57 382.74 320.04 387.52 328.48 394 325.42 389.54 317.57"
                     style="opacity: 0.2; transform-origin: 388.37px 323.025px;" class="animable"></polygon>
        </g>
        <path d="M317.76,80.78c1.55,8.07,2.87,12.71-.1,17.82-4.46,7.68-15.2,6.55-19.12-.89C295,91,293.06,78.94,300,73.79A11.2,11.2,0,0,1,317.76,80.78Z"
              style="fill: rgb(127, 62, 59); transform-origin: 307.386px 87.6953px;" id="elxvr6a82nqyq"
              class="animable"></path>
        <path d="M304.17,86.17c-4.92,2.46-5-5.4-4.61-7.07-1.85,1.78-4.35,3.57-8.89,1.61-5.58-2.41-4-8.71,0-8.63,0,0-3-5.7,3.56-6.3A21.75,21.75,0,0,1,302.17,67s2.43-6.37,8.35-3.28c3.13,1.63,5.63,6.45,5.63,6.45s12.75,1.89,5.83,8.55c1.57,3.42.74,14.55-3.31,19.31C316.9,100.11,301.75,99.5,304.17,86.17Z"
              style="fill: rgb(38, 50, 56); transform-origin: 305.546px 80.9024px;" id="elpjm6ia1jpr"
              class="animable"></path>
        <path d="M313.94,73.42s2.31-3.19,2.5-10.55C321.83,68.73,313.94,73.42,313.94,73.42Z"
              style="fill: rgb(38, 50, 56); transform-origin: 316.132px 68.145px;" id="elfnhzil4aon6"
              class="animable"></path>
        <path d="M306.56,85.72A9.26,9.26,0,0,1,305,91.48c-1.5,2.23-3.54,1.27-4.2-1.08-.6-2.11-.54-5.82,1.49-7.22S306.35,83.26,306.56,85.72Z"
              style="fill: rgb(127, 62, 59); transform-origin: 303.524px 87.6894px;" id="elrhqeca2h9ml"
              class="animable"></path>
        <path d="M323.48,169.43s13.8,55,20.42,75.53c7.24,22.44,38.66,81.27,38.66,81.27l12.33-5.37s-23.78-53.56-28.86-76c-5.51-24.32-17.31-77.94-17.31-77.94Z"
              style="fill: rgb(38, 50, 56); transform-origin: 359.185px 246.575px;" id="el2c7wgbdgiko"
              class="animable"></path>
        <path d="M378.91,322.17c-.05,0,4,5.79,4,5.79l13.85-6.12-2.8-5.73Z"
              style="fill: rgb(64, 123, 255); transform-origin: 387.835px 322.035px;" id="elseohwfcav4b"
              class="animable"></path>
        <g id="elz6sablitosl">
            <path d="M330.69,188.82c9.78.93,12.28,36.81,12.94,55.33-4.05-12.74-10.56-37.37-15.08-54.86A3.33,3.33,0,0,1,330.69,188.82Z"
                  style="opacity: 0.3; transform-origin: 336.09px 216.473px;" class="animable"></path>
        </g>
        <path d="M309.61,170.79s1.59,56.52,4.58,78.74c3.11,23.11,14.61,97,14.61,97h12.45s-2.88-74.62-4.57-97.45c-1.84-24.89-1.36-80.84-1.36-80.84Z"
              style="fill: rgb(38, 50, 56); transform-origin: 325.43px 257.385px;" id="ela40brxs836j"
              class="animable"></path>
        <path d="M326.32,340.72c-.05,0,1,7.53,1,7.53l15.13-.52.14-7Z"
              style="fill: rgb(64, 123, 255); transform-origin: 334.454px 344.485px;" id="el0a4lr5cp0d0v"
              class="animable"></path>
    </g>
    <defs>
        <filter id="active" height="200%">
            <feMorphology in="SourceAlpha" result="DILATED" operator="dilate" radius="2"></feMorphology>
            <feFlood flood-color="#32DFEC" flood-opacity="1" result="PINK"></feFlood>
            <feComposite in="PINK" in2="DILATED" operator="in" result="OUTLINE"></feComposite>
            <feMerge>
                <feMergeNode in="OUTLINE"></feMergeNode>
                <feMergeNode in="SourceGraphic"></feMergeNode>
            </feMerge>
        </filter>
        <filter id="hover" height="200%">
            <feMorphology in="SourceAlpha" result="DILATED" operator="dilate" radius="2"></feMorphology>
            <feFlood flood-color="#ff0000" flood-opacity="0.5" result="PINK"></feFlood>
            <feComposite in="PINK" in2="DILATED" operator="in" result="OUTLINE"></feComposite>
            <feMerge>
                <feMergeNode in="OUTLINE"></feMergeNode>
                <feMergeNode in="SourceGraphic"></feMergeNode>
            </feMerge>
            <feColorMatrix type="matrix"
                           values="0   0   0   0   0                0   1   0   0   0                0   0   0   0   0                0   0   0   1   0 "></feColorMatrix>
        </filter>
    </defs>
</svg>